REM MD5 e6c33854861351dd2832b3830effc379
FILE "Winter Releases '98 (Europe, Australia) (Rev 1).bin" BINARY
  TRACK 01 MODE2/2352
    INDEX 01 00:00:00
  TRACK 02 AUDIO
    INDEX 00 55:00:12
    INDEX 01 55:02:12
  TRACK 03 AUDIO
    INDEX 00 57:33:67
    INDEX 01 57:35:67
REM LEADOUT 60:37:24
